<svg height="512" viewBox="0 0 256 256" width="512" xmlns="http://www.w3.org/2000/svg"><rect fill="#f4efed" height="152.201" rx="10" width="248" x="4" y="60.621"/><path d="m14 212.822h10a10 10 0 0 1 -10-10v-132.201a10 10 0 0 1 10-10h-10a10 10 0 0 0 -10 10v132.2a10 10 0 0 0 10 10.001z" fill="#fff"/><path d="m4 100.12h248v95.191h-248z" fill="#576fa5"/><path d="m242 60.621h-10a10 10 0 0 1 10 10v132.2a10 10 0 0 1 -10 10h10a10 10 0 0 0 10-10v-132.2a10 10 0 0 0 -10-10z" fill="#d6d1cf"/><path d="m242 100.12h10v95.191h-10z" fill="#395288"/><path d="m4 100.12h10v95.191h-10z" fill="#708dc8"/><path d="m206.134 47.814h13.923a5 5 0 0 1 5 5v7.807a0 0 0 0 1 0 0h-23.923a0 0 0 0 1 0 0v-7.807a5 5 0 0 1 5-5z" fill="#fcc24c"/><path d="m34.322 49.814h13.923a5 5 0 0 1 5 5v5.807a0 0 0 0 1 0 0h-23.923a0 0 0 0 1 0 0v-5.807a5 5 0 0 1 5-5z" fill="#fcc24c"/><path d="m67.3 43.178a5.269 5.269 0 0 0 -5.269 5.27v12.173h10.538v-12.173a5.27 5.27 0 0 0 -5.269-5.27z" fill="#fcc24c"/><rect fill="#576fa5" height="27.148" rx="5" width="51.809" x="187.191" y="72.972"/><g fill="#690589"><path d="m242 214.822h-228a12.014 12.014 0 0 1 -12-12v-132.201a12.013 12.013 0 0 1 12-12h228a12.013 12.013 0 0 1 12 12v132.2a12.014 12.014 0 0 1 -12 12.001zm-228-152.201a8.009 8.009 0 0 0 -8 8v132.2a8.009 8.009 0 0 0 8 8h228a8.009 8.009 0 0 0 8-8v-132.2a8.009 8.009 0 0 0 -8-8z"/><path d="m252 197.312h-248a2 2 0 0 1 -2-2v-95.192a2 2 0 0 1 2-2h248a2 2 0 0 1 2 2v95.192a2 2 0 0 1 -2 2zm-246-4h244v-91.192h-244z"/><path d="m12 129.934a2 2 0 0 1 -2-2v-12a2 2 0 0 1 4 0v12a2 2 0 0 1 -2 2z"/><path d="m234 102.12h-41.809a7.008 7.008 0 0 1 -7-7v-17.148a7.008 7.008 0 0 1 7-7h41.809a7.008 7.008 0 0 1 7 7v17.148a7.008 7.008 0 0 1 -7 7zm-41.809-27.148a3 3 0 0 0 -3 3v17.148a3 3 0 0 0 3 3h41.809a3 3 0 0 0 3-3v-17.148a3 3 0 0 0 -3-3z"/><path d="m225.057 62.621h-23.923a2 2 0 0 1 -2-2v-7.808a7.008 7.008 0 0 1 7-7h13.923a7.008 7.008 0 0 1 7 7v7.808a2 2 0 0 1 -2 2zm-21.923-4h19.923v-5.808a3 3 0 0 0 -3-3h-13.923a3 3 0 0 0 -3 3z"/><path d="m53.245 62.621h-23.923a2 2 0 0 1 -2-2v-5.808a7.008 7.008 0 0 1 7-7h13.923a7.008 7.008 0 0 1 7 7v5.808a2 2 0 0 1 -2 2zm-21.923-4h19.923v-3.808a3 3 0 0 0 -3-3h-13.923a3 3 0 0 0 -3 3z"/><path d="m72.568 62.621h-10.538a2 2 0 0 1 -2-2v-12.174a7.269 7.269 0 1 1 14.538 0v12.174a2 2 0 0 1 -2 2zm-8.538-4h6.538v-10.174a3.269 3.269 0 1 0 -6.538 0z"/></g><path d="m28.356 75.981h36.144v8.779h-36.144a4.39 4.39 0 0 1 -4.389-4.39 4.389 4.389 0 0 1 4.389-4.389z" fill="#576fa5"/><path d="m64.5 86.759h-36.144a6.389 6.389 0 1 1 0-12.778h36.144a2 2 0 0 1 2 2v8.778a2 2 0 0 1 -2 2zm-36.144-8.778a2.389 2.389 0 1 0 0 4.778h34.144v-4.778z" fill="#690589"/><circle cx="64.497" cy="80.37" fill="#576fa5" r="8.072"/><path d="m64.5 90.442a10.072 10.072 0 1 1 10.068-10.071 10.083 10.083 0 0 1 -10.068 10.071zm0-16.144a6.072 6.072 0 1 0 6.071 6.073 6.079 6.079 0 0 0 -6.071-6.071z" fill="#690589"/><path d="m219.12 91.7h-12.049a5.155 5.155 0 0 1 -5.155-5.155 5.155 5.155 0 0 1 5.155-5.155h12.049a5.155 5.155 0 0 1 5.155 5.155 5.155 5.155 0 0 1 -5.155 5.155z" fill="#f4efed"/><path d="m219.121 93.7h-12.05a7.155 7.155 0 0 1 0-14.31h12.05a7.155 7.155 0 0 1 0 14.31zm-12.05-10.31a3.155 3.155 0 0 0 0 6.31h12.05a3.155 3.155 0 0 0 0-6.31z" fill="#690589"/><circle cx="128" cy="136.721" fill="#f4efed" r="58.59"/><path d="m128 78.131c-1.346 0-2.677.062-4 .151a58.575 58.575 0 0 1 0 116.878c1.323.089 2.654.151 4 .151a58.59 58.59 0 0 0 0-117.18z" fill="#d6d1cf"/><path d="m128 195.311c1.346 0 2.677-.062 4-.151a58.575 58.575 0 0 1 0-116.878c-1.323-.089-2.654-.151-4-.151a58.59 58.59 0 0 0 0 117.18z" fill="#fff"/><path d="m128 197.312a60.591 60.591 0 1 1 60.59-60.591 60.659 60.659 0 0 1 -60.59 60.591zm0-117.181a56.591 56.591 0 1 0 56.59 56.59 56.655 56.655 0 0 0 -56.59-56.59z" fill="#690589"/><circle cx="128" cy="136.721" fill="#576fa5" r="43.477"/><path d="m128 182.2a45.477 45.477 0 1 1 45.477-45.477 45.529 45.529 0 0 1 -45.477 45.477zm0-86.954a41.477 41.477 0 1 0 41.477 41.477 41.524 41.524 0 0 0 -41.477-41.479z" fill="#690589"/><path d="m128 169.5a32.774 32.774 0 1 1 32.773-32.774 32.811 32.811 0 0 1 -32.773 32.774zm0-61.547a28.774 28.774 0 1 0 28.773 28.773 28.8 28.8 0 0 0 -28.773-28.778z" fill="#690589"/><path d="m128 148.2a11.481 11.481 0 1 1 11.48-11.481 11.494 11.494 0 0 1 -11.48 11.481zm0-18.961a7.481 7.481 0 1 0 7.48 7.48 7.489 7.489 0 0 0 -7.48-7.478z" fill="#690589"/></svg>