<?xml version="1.0" encoding="iso-8859-1"?>
<!-- Generator: Adobe Illustrator 19.0.0, SVG Export Plug-In . SVG Version: 6.00 Build 0)  -->
<svg version="1.1" id="Capa_1" xmlns="http://www.w3.org/2000/svg" xmlns:xlink="http://www.w3.org/1999/xlink" x="0px" y="0px"
	 viewBox="0 0 511.999 511.999" style="enable-background:new 0 0 511.999 511.999;" xml:space="preserve">
<path style="fill:#F29C1F;" d="M170.667,51.199H102.4c-4.71,0-8.533-3.814-8.533-8.533V8.533C93.867,3.814,97.69,0,102.4,0h68.267
	c4.71,0,8.533,3.814,8.533,8.533v34.133C179.2,47.385,175.377,51.199,170.667,51.199z"/>
<path style="fill:#E57E25;" d="M238.933,51.199h-68.267c-4.71,0-8.533-3.814-8.533-8.533V8.533c0-4.719,3.823-8.533,8.533-8.533
	h68.267c4.71,0,8.533,3.814,8.533,8.533v34.133C247.467,47.385,243.644,51.199,238.933,51.199z"/>
<path style="fill:#D25627;" d="M136.533,85.332H68.267c-4.71,0-8.533-3.814-8.533-8.533V42.666c0-4.719,3.823-8.533,8.533-8.533
	h68.267c4.71,0,8.533,3.814,8.533,8.533v34.133C145.067,81.518,141.244,85.332,136.533,85.332z"/>
<path style="fill:#E64C3C;" d="M204.8,85.332h-68.267c-4.71,0-8.533-3.814-8.533-8.533V42.666c0-4.719,3.823-8.533,8.533-8.533
	H204.8c4.71,0,8.533,3.814,8.533,8.533v34.133C213.333,81.518,209.51,85.332,204.8,85.332z"/>
<g>
	<path style="fill:#F29C1F;" d="M273.067,85.332H204.8c-4.71,0-8.533-3.814-8.533-8.533V42.666c0-4.719,3.823-8.533,8.533-8.533
		h68.267c4.71,0,8.533,3.814,8.533,8.533v34.133C281.6,81.518,277.777,85.332,273.067,85.332z"/>
	<path style="fill:#F29C1F;" d="M102.4,119.466H34.133c-4.71,0-8.533-3.814-8.533-8.533V76.799c0-4.719,3.823-8.533,8.533-8.533
		H102.4c4.71,0,8.533,3.814,8.533,8.533v34.133C110.933,115.651,107.11,119.466,102.4,119.466z"/>
</g>
<path style="fill:#E57E25;" d="M170.667,119.466H102.4c-4.71,0-8.533-3.814-8.533-8.533V76.799c0-4.719,3.823-8.533,8.533-8.533
	h68.267c4.71,0,8.533,3.814,8.533,8.533v34.133C179.2,115.651,175.377,119.466,170.667,119.466z"/>
<path style="fill:#D25627;" d="M238.933,119.466h-68.267c-4.71,0-8.533-3.814-8.533-8.533V76.799c0-4.719,3.823-8.533,8.533-8.533
	h68.267c4.71,0,8.533,3.814,8.533,8.533v34.133C247.467,115.651,243.644,119.466,238.933,119.466z"/>
<path style="fill:#E57E25;" d="M307.2,119.466h-68.267c-4.71,0-8.533-3.814-8.533-8.533V76.799c0-4.719,3.823-8.533,8.533-8.533
	H307.2c4.71,0,8.533,3.814,8.533,8.533v34.133C315.733,115.651,311.91,119.466,307.2,119.466z"/>
<path style="fill:#E64C3C;" d="M392.533,119.466H358.4c-4.71,0-8.533-3.814-8.533-8.533v-76.8c0-4.719,3.823-8.533,8.533-8.533
	h34.133c4.71,0,8.533,3.814,8.533,8.533v76.8C401.067,115.651,397.244,119.466,392.533,119.466z"/>
<path style="fill:#F0C419;" d="M460.8,119.466h-34.133c-4.71,0-8.533-3.814-8.533-8.533v-76.8c0-4.719,3.823-8.533,8.533-8.533
	H460.8c4.71,0,8.533,3.814,8.533,8.533v76.8C469.333,115.651,465.51,119.466,460.8,119.466z"/>
<path style="fill:#24AE5F;" d="M426.667,119.466h-34.133c-4.71,0-8.533-3.814-8.533-8.533V8.533c0-4.719,3.823-8.533,8.533-8.533
	h34.133c4.71,0,8.533,3.814,8.533,8.533v102.4C435.2,115.651,431.377,119.466,426.667,119.466z"/>
<g>
	<path style="fill:#02654B;" d="M452.267,221.866c-4.71,0-8.533-3.814-8.533-8.533v-34.134c0-4.719,3.823-8.533,8.533-8.533
		s8.533,3.814,8.533,8.533v34.133C460.8,218.051,456.977,221.866,452.267,221.866z"/>
	<path style="fill:#02654B;" d="M366.933,221.866c-4.71,0-8.533-3.814-8.533-8.533v-34.134c0-4.719,3.823-8.533,8.533-8.533
		s8.533,3.814,8.533,8.533v34.133C375.467,218.051,371.644,221.866,366.933,221.866z"/>
	<path style="fill:#02654B;" d="M281.6,221.866c-4.71,0-8.533-3.814-8.533-8.533v-34.134c0-4.719,3.823-8.533,8.533-8.533
		c4.71,0,8.533,3.814,8.533,8.533v34.133C290.133,218.051,286.31,221.866,281.6,221.866z"/>
</g>
<g>
	<path style="fill:#7AB7D9;" d="M187.733,221.866H153.6c-4.71,0-8.533-3.814-8.533-8.533v-17.067c0-14.114,11.486-25.6,25.6-25.6
		s25.6,11.486,25.6,25.6v17.067C196.267,218.051,192.444,221.866,187.733,221.866z"/>
	<path style="fill:#7AB7D9;" d="M85.333,221.866H51.2c-4.71,0-8.533-3.814-8.533-8.533v-17.067c0-14.114,11.486-25.6,25.6-25.6
		s25.6,11.486,25.6,25.6v17.067C93.867,218.051,90.044,221.866,85.333,221.866z"/>
</g>
<g>
	<path style="fill:#D0E8F9;" d="M204.8,290.132h-68.267c-4.71,0-8.533-3.814-8.533-8.533v-68.267c0-4.719,3.823-8.533,8.533-8.533
		H204.8c4.71,0,8.533,3.814,8.533,8.533v68.267C213.333,286.318,209.51,290.132,204.8,290.132z"/>
	<path style="fill:#D0E8F9;" d="M102.4,290.132H34.133c-4.71,0-8.533-3.814-8.533-8.533v-68.267c0-4.719,3.823-8.533,8.533-8.533
		H102.4c4.71,0,8.533,3.814,8.533,8.533v68.267C110.933,286.318,107.11,290.132,102.4,290.132z"/>
</g>
<g>
	<path style="fill:#7AB7D9;" d="M469.333,392.532H435.2c-4.71,0-8.533-3.814-8.533-8.533v-17.067c0-14.114,11.486-25.6,25.6-25.6
		s25.6,11.486,25.6,25.6v17.067C477.867,388.718,474.044,392.532,469.333,392.532z"/>
	<path style="fill:#7AB7D9;" d="M187.733,392.532H153.6c-4.71,0-8.533-3.814-8.533-8.533v-17.067c0-14.114,11.486-25.6,25.6-25.6
		s25.6,11.486,25.6,25.6v17.067C196.267,388.718,192.444,392.532,187.733,392.532z"/>
	<path style="fill:#7AB7D9;" d="M85.333,392.532H51.2c-4.71,0-8.533-3.814-8.533-8.533v-17.067c0-14.114,11.486-25.6,25.6-25.6
		s25.6,11.486,25.6,25.6v17.067C93.867,388.718,90.044,392.532,85.333,392.532z"/>
</g>
<path style="fill:#D75E72;" d="M298.667,460.799h-51.2c-4.71,0-8.533-3.814-8.533-8.533v-34.133c0-4.719,3.823-8.533,8.533-8.533
	h51.2c4.71,0,8.533,3.814,8.533,8.533v34.133C307.2,456.985,303.377,460.799,298.667,460.799z"/>
<path style="fill:#E64C3C;" d="M384,460.799h-51.2c-4.71,0-8.533-3.814-8.533-8.533v-34.133c0-4.719,3.823-8.533,8.533-8.533H384
	c4.71,0,8.533,3.814,8.533,8.533v34.133C392.533,456.985,388.71,460.799,384,460.799z"/>
<g>
	<path style="fill:#D0E8F9;" d="M486.4,460.799h-68.267c-4.71,0-8.533-3.814-8.533-8.533v-68.267c0-4.719,3.823-8.533,8.533-8.533
		H486.4c4.71,0,8.533,3.814,8.533,8.533v68.267C494.933,456.985,491.11,460.799,486.4,460.799z"/>
	<path style="fill:#D0E8F9;" d="M204.8,460.799h-68.267c-4.71,0-8.533-3.814-8.533-8.533v-68.267c0-4.719,3.823-8.533,8.533-8.533
		H204.8c4.71,0,8.533,3.814,8.533,8.533v68.267C213.333,456.985,209.51,460.799,204.8,460.799z"/>
	<path style="fill:#D0E8F9;" d="M102.4,460.799H34.133c-4.71,0-8.533-3.814-8.533-8.533v-68.267c0-4.719,3.823-8.533,8.533-8.533
		H102.4c4.71,0,8.533,3.814,8.533,8.533v68.267C110.933,456.985,107.11,460.799,102.4,460.799z"/>
</g>
<g>
	<path style="fill:#527F72;" d="M477.867,290.132h-51.2c-4.71,0-8.533-3.814-8.533-8.533v-42.667
		c0-18.825,15.309-34.133,34.133-34.133s34.133,15.309,34.133,34.133v42.667C486.4,286.318,482.577,290.132,477.867,290.132z"/>
	<path style="fill:#527F72;" d="M392.533,290.132h-51.2c-4.71,0-8.533-3.814-8.533-8.533v-42.667
		c0-18.825,15.309-34.133,34.133-34.133s34.133,15.309,34.133,34.133v42.667C401.067,286.318,397.244,290.132,392.533,290.132z"/>
	<path style="fill:#527F72;" d="M307.2,290.132H256c-4.71,0-8.533-3.814-8.533-8.533v-42.667c0-18.825,15.309-34.133,34.133-34.133
		c18.824,0,34.133,15.309,34.133,34.133v42.667C315.733,286.318,311.91,290.132,307.2,290.132z"/>
</g>
<g>
	<path style="fill:#BDC3C7;" d="M42.667,511.999c-4.71,0-8.533-3.814-8.533-8.533v-17.067c0-4.719,3.823-8.533,8.533-8.533
		s8.533,3.814,8.533,8.533v17.067C51.2,508.185,47.377,511.999,42.667,511.999z"/>
	<path style="fill:#BDC3C7;" d="M469.333,511.999c-4.71,0-8.533-3.814-8.533-8.533v-17.067c0-4.719,3.823-8.533,8.533-8.533
		s8.533,3.814,8.533,8.533v17.067C477.867,508.185,474.044,511.999,469.333,511.999z"/>
</g>
<g>
	<path style="fill:#8697CB;" d="M503.467,494.932H8.533c-4.71,0-8.533-3.814-8.533-8.533v-34.133c0-4.719,3.823-8.533,8.533-8.533
		h494.933c4.71,0,8.533,3.814,8.533,8.533v34.133C512,491.118,508.177,494.932,503.467,494.932z"/>
	<path style="fill:#8697CB;" d="M503.467,324.266H8.533c-4.71,0-8.533-3.814-8.533-8.533v-34.134c0-4.719,3.823-8.533,8.533-8.533
		h494.933c4.71,0,8.533,3.814,8.533,8.533v34.133C512,320.451,508.177,324.266,503.467,324.266z"/>
	<path style="fill:#8697CB;" d="M503.467,153.599H8.533c-4.71,0-8.533-3.814-8.533-8.533v-34.133c0-4.719,3.823-8.533,8.533-8.533
		h494.933c4.71,0,8.533,3.814,8.533,8.533v34.133C512,149.785,508.177,153.599,503.467,153.599z"/>
</g>
<path style="fill:#F0C419;" d="M349.867,426.666H281.6c-4.71,0-8.533-3.814-8.533-8.533v-34.134c0-4.719,3.823-8.533,8.533-8.533
	h68.267c4.71,0,8.533,3.814,8.533,8.533v34.133C358.4,422.851,354.577,426.666,349.867,426.666z"/>
<g>
	<path style="fill:#611C90;" d="M503.467,494.932H8.533c-4.71,0-8.533-3.814-8.533-8.533v-34.133c0-4.719,3.823-8.533,8.533-8.533
		h494.933c4.719,0,8.533,3.814,8.533,8.533v34.133C512,491.118,508.186,494.932,503.467,494.932z M17.067,477.866h477.867v-17.067
		H17.067V477.866z"/>
	<path style="fill:#611C90;" d="M42.667,511.999c-4.71,0-8.533-3.814-8.533-8.533v-17.067c0-4.719,3.823-8.533,8.533-8.533
		s8.533,3.814,8.533,8.533v17.067C51.2,508.185,47.377,511.999,42.667,511.999z"/>
	<path style="fill:#611C90;" d="M469.333,511.999c-4.719,0-8.533-3.814-8.533-8.533v-17.067c0-4.719,3.814-8.533,8.533-8.533
		s8.533,3.814,8.533,8.533v17.067C477.867,508.185,474.052,511.999,469.333,511.999z"/>
	<path style="fill:#611C90;" d="M298.667,460.799h-51.2c-4.71,0-8.533-3.814-8.533-8.533v-34.133c0-4.719,3.823-8.533,8.533-8.533
		h51.2c4.719,0,8.533,3.814,8.533,8.533v34.133C307.2,456.985,303.386,460.799,298.667,460.799z M256,443.732h34.133v-17.067H256
		V443.732z"/>
	<path style="fill:#611C90;" d="M384,460.799h-51.2c-4.719,0-8.533-3.814-8.533-8.533v-34.133c0-4.719,3.814-8.533,8.533-8.533H384
		c4.719,0,8.533,3.814,8.533,8.533v34.133C392.533,456.985,388.719,460.799,384,460.799z M341.333,443.732h34.133v-17.067h-34.133
		V443.732z"/>
	<path style="fill:#611C90;" d="M349.867,426.666H281.6c-4.719,0-8.533-3.814-8.533-8.533v-34.134c0-4.719,3.814-8.533,8.533-8.533
		h68.267c4.719,0,8.533,3.814,8.533,8.533v34.133C358.4,422.851,354.586,426.666,349.867,426.666z M290.133,409.599h51.2v-17.067
		h-51.2L290.133,409.599L290.133,409.599z"/>
	<path style="fill:#611C90;" d="M486.4,460.799h-68.267c-4.719,0-8.533-3.814-8.533-8.533v-68.267c0-4.719,3.814-8.533,8.533-8.533
		H486.4c4.719,0,8.533,3.814,8.533,8.533v68.267C494.933,456.985,491.119,460.799,486.4,460.799z M426.667,443.732h51.2v-51.2h-51.2
		V443.732z"/>
	<path style="fill:#611C90;" d="M469.333,392.532H435.2c-4.719,0-8.533-3.814-8.533-8.533v-17.067c0-14.114,11.486-25.6,25.6-25.6
		s25.6,11.486,25.6,25.6v17.067C477.867,388.718,474.052,392.532,469.333,392.532z M443.733,375.466H460.8v-8.533
		c0-4.71-3.823-8.533-8.533-8.533s-8.533,3.823-8.533,8.533v8.533H443.733z"/>
	<path style="fill:#611C90;" d="M503.467,324.266H8.533c-4.71,0-8.533-3.814-8.533-8.533v-34.134c0-4.719,3.823-8.533,8.533-8.533
		h494.933c4.719,0,8.533,3.814,8.533,8.533v34.133C512,320.451,508.186,324.266,503.467,324.266z M17.067,307.199h477.867v-17.067
		H17.067V307.199z"/>
	<path style="fill:#611C90;" d="M503.467,153.599H8.533c-4.71,0-8.533-3.823-8.533-8.533v-34.133c0-4.71,3.823-8.533,8.533-8.533
		h494.933c4.719,0,8.533,3.823,8.533,8.533v34.133C512,149.776,508.186,153.599,503.467,153.599z M17.067,136.532h477.867v-17.067
		H17.067V136.532z"/>
	<path style="fill:#611C90;" d="M204.8,290.132h-68.267c-4.71,0-8.533-3.814-8.533-8.533v-68.267c0-4.71,3.823-8.533,8.533-8.533
		H204.8c4.71,0,8.533,3.823,8.533,8.533v68.267C213.333,286.318,209.51,290.132,204.8,290.132z M145.067,273.066h51.2v-51.2h-51.2
		V273.066z"/>
	<path style="fill:#611C90;" d="M477.867,290.132h-51.2c-4.719,0-8.533-3.814-8.533-8.533v-42.667
		c0-18.825,15.309-34.133,34.133-34.133s34.133,15.309,34.133,34.133v42.667C486.4,286.318,482.586,290.132,477.867,290.132z
		 M435.2,273.066h34.133v-34.133c0-9.412-7.654-17.067-17.067-17.067s-17.067,7.654-17.067,17.067L435.2,273.066L435.2,273.066z"/>
	<path style="fill:#611C90;" d="M187.733,221.866H153.6c-4.71,0-8.533-3.823-8.533-8.533v-17.067c0-14.114,11.486-25.6,25.6-25.6
		s25.6,11.486,25.6,25.6v17.067C196.267,218.043,192.444,221.866,187.733,221.866z M162.133,204.799H179.2v-8.533
		c0-4.702-3.831-8.533-8.533-8.533c-4.702,0-8.533,3.831-8.533,8.533L162.133,204.799L162.133,204.799z"/>
	<path style="fill:#611C90;" d="M102.4,290.132H34.133c-4.71,0-8.533-3.814-8.533-8.533v-68.267c0-4.71,3.823-8.533,8.533-8.533
		H102.4c4.71,0,8.533,3.823,8.533,8.533v68.267C110.933,286.318,107.11,290.132,102.4,290.132z M42.667,273.066h51.2v-51.2h-51.2
		V273.066z"/>
	<path style="fill:#611C90;" d="M85.333,221.866H51.2c-4.71,0-8.533-3.823-8.533-8.533v-17.067c0-14.114,11.486-25.6,25.6-25.6
		s25.6,11.486,25.6,25.6v17.067C93.867,218.043,90.044,221.866,85.333,221.866z M59.733,204.799H76.8v-8.533
		c0-4.702-3.831-8.533-8.533-8.533s-8.533,3.831-8.533,8.533L59.733,204.799L59.733,204.799z"/>
	<path style="fill:#611C90;" d="M452.267,221.866c-4.719,0-8.533-3.823-8.533-8.533v-34.134c0-4.71,3.814-8.533,8.533-8.533
		s8.533,3.823,8.533,8.533v34.133C460.8,218.043,456.986,221.866,452.267,221.866z"/>
	<path style="fill:#611C90;" d="M392.533,290.132h-51.2c-4.719,0-8.533-3.814-8.533-8.533v-42.667
		c0-18.825,15.309-34.133,34.133-34.133s34.133,15.309,34.133,34.133v42.667C401.067,286.318,397.252,290.132,392.533,290.132z
		 M349.867,273.066H384v-34.133c0-9.412-7.654-17.067-17.067-17.067s-17.067,7.654-17.067,17.067L349.867,273.066L349.867,273.066z"
		/>
	<path style="fill:#611C90;" d="M366.933,221.866c-4.719,0-8.533-3.823-8.533-8.533v-34.134c0-4.71,3.814-8.533,8.533-8.533
		s8.533,3.823,8.533,8.533v34.133C375.467,218.043,371.652,221.866,366.933,221.866z"/>
	<path style="fill:#611C90;" d="M307.2,290.132H256c-4.71,0-8.533-3.814-8.533-8.533v-42.667c0-18.825,15.309-34.133,34.133-34.133
		c18.824,0,34.133,15.309,34.133,34.133v42.667C315.733,286.318,311.919,290.132,307.2,290.132z M264.533,273.066h34.133v-34.133
		c0-9.412-7.654-17.067-17.067-17.067c-9.412,0-17.067,7.654-17.067,17.067v34.133H264.533z"/>
	<path style="fill:#611C90;" d="M281.6,221.866c-4.719,0-8.533-3.823-8.533-8.533v-34.134c0-4.71,3.814-8.533,8.533-8.533
		s8.533,3.823,8.533,8.533v34.133C290.133,218.043,286.319,221.866,281.6,221.866z"/>
	<path style="fill:#611C90;" d="M102.4,119.466H34.133c-4.71,0-8.533-3.823-8.533-8.533V76.799c0-4.71,3.823-8.533,8.533-8.533
		H102.4c4.71,0,8.533,3.823,8.533,8.533v34.133C110.933,115.643,107.11,119.466,102.4,119.466z M42.667,102.399h51.2V85.332h-51.2
		V102.399z"/>
	<path style="fill:#611C90;" d="M170.667,119.466H102.4c-4.71,0-8.533-3.823-8.533-8.533V76.799c0-4.71,3.823-8.533,8.533-8.533
		h68.267c4.71,0,8.533,3.823,8.533,8.533v34.133C179.2,115.643,175.377,119.466,170.667,119.466z M110.933,102.399h51.2V85.332
		h-51.2C110.933,85.332,110.933,102.399,110.933,102.399z"/>
	<path style="fill:#611C90;" d="M238.933,119.466h-68.267c-4.71,0-8.533-3.823-8.533-8.533V76.799c0-4.71,3.823-8.533,8.533-8.533
		h68.267c4.71,0,8.533,3.823,8.533,8.533v34.133C247.467,115.643,243.644,119.466,238.933,119.466z M179.2,102.399h51.2V85.332
		h-51.2V102.399z"/>
	<path style="fill:#611C90;" d="M136.533,85.332H68.267c-4.71,0-8.533-3.823-8.533-8.533V42.666c0-4.71,3.823-8.533,8.533-8.533
		h68.267c4.71,0,8.533,3.823,8.533,8.533v34.133C145.067,81.509,141.244,85.332,136.533,85.332z M76.8,68.266H128V51.199H76.8
		V68.266z"/>
	<path style="fill:#611C90;" d="M204.8,85.332h-68.267c-4.71,0-8.533-3.823-8.533-8.533V42.666c0-4.71,3.823-8.533,8.533-8.533
		H204.8c4.71,0,8.533,3.823,8.533,8.533v34.133C213.333,81.509,209.51,85.332,204.8,85.332z M145.067,68.266h51.2V51.199h-51.2
		V68.266z"/>
	<path style="fill:#611C90;" d="M170.667,51.199H102.4c-4.71,0-8.533-3.823-8.533-8.533V8.533C93.867,3.823,97.69,0,102.4,0h68.267
		c4.71,0,8.533,3.823,8.533,8.533v34.133C179.2,47.376,175.377,51.199,170.667,51.199z M110.933,34.132h51.2V17.065h-51.2
		C110.933,17.065,110.933,34.132,110.933,34.132z"/>
	<path style="fill:#611C90;" d="M238.933,51.199h-68.267c-4.71,0-8.533-3.823-8.533-8.533V8.533c0-4.71,3.823-8.533,8.533-8.533
		h68.267c4.71,0,8.533,3.823,8.533,8.533v34.133C247.467,47.376,243.644,51.199,238.933,51.199z M179.2,34.132h51.2V17.065h-51.2
		V34.132z"/>
	<path style="fill:#611C90;" d="M273.067,85.332H204.8c-4.71,0-8.533-3.823-8.533-8.533V42.666c0-4.71,3.823-8.533,8.533-8.533
		h68.267c4.719,0,8.533,3.823,8.533,8.533v34.133C281.6,81.509,277.786,85.332,273.067,85.332z M213.333,68.266h51.2V51.199h-51.2
		V68.266z"/>
	<path style="fill:#611C90;" d="M307.2,119.466h-68.267c-4.71,0-8.533-3.823-8.533-8.533V76.799c0-4.71,3.823-8.533,8.533-8.533
		H307.2c4.719,0,8.533,3.823,8.533,8.533v34.133C315.733,115.643,311.919,119.466,307.2,119.466z M247.467,102.399h51.2V85.332
		h-51.2V102.399z"/>
	<path style="fill:#611C90;" d="M426.667,119.466h-34.133c-4.719,0-8.533-3.823-8.533-8.533V8.533c0-4.71,3.814-8.533,8.533-8.533
		h34.133c4.719,0,8.533,3.823,8.533,8.533v102.4C435.2,115.643,431.386,119.466,426.667,119.466z M401.067,102.399h17.067V17.066
		h-17.067V102.399z"/>
	<path style="fill:#611C90;" d="M392.533,119.466H358.4c-4.719,0-8.533-3.823-8.533-8.533v-76.8c0-4.71,3.814-8.533,8.533-8.533
		h34.133c4.719,0,8.533,3.823,8.533,8.533v76.8C401.067,115.643,397.252,119.466,392.533,119.466z M366.933,102.399H384V42.666
		h-17.067V102.399z"/>
	<path style="fill:#611C90;" d="M460.8,119.466h-34.133c-4.719,0-8.533-3.823-8.533-8.533v-76.8c0-4.71,3.814-8.533,8.533-8.533
		H460.8c4.719,0,8.533,3.823,8.533,8.533v76.8C469.333,115.643,465.519,119.466,460.8,119.466z M435.2,102.399h17.067V42.666H435.2
		V102.399z"/>
	<path style="fill:#611C90;" d="M204.8,460.799h-68.267c-4.71,0-8.533-3.814-8.533-8.533v-68.267c0-4.719,3.823-8.533,8.533-8.533
		H204.8c4.71,0,8.533,3.814,8.533,8.533v68.267C213.333,456.985,209.51,460.799,204.8,460.799z M145.067,443.732h51.2v-51.2h-51.2
		V443.732z"/>
	<path style="fill:#611C90;" d="M187.733,392.532H153.6c-4.71,0-8.533-3.814-8.533-8.533v-17.067c0-14.114,11.486-25.6,25.6-25.6
		s25.6,11.486,25.6,25.6v17.067C196.267,388.718,192.444,392.532,187.733,392.532z M162.133,375.466H179.2v-8.533
		c0-4.71-3.831-8.533-8.533-8.533c-4.702,0-8.533,3.823-8.533,8.533L162.133,375.466L162.133,375.466z"/>
	<path style="fill:#611C90;" d="M102.4,460.799H34.133c-4.71,0-8.533-3.814-8.533-8.533v-68.267c0-4.719,3.823-8.533,8.533-8.533
		H102.4c4.71,0,8.533,3.814,8.533,8.533v68.267C110.933,456.985,107.11,460.799,102.4,460.799z M42.667,443.732h51.2v-51.2h-51.2
		V443.732z"/>
	<path style="fill:#611C90;" d="M85.333,392.532H51.2c-4.71,0-8.533-3.814-8.533-8.533v-17.067c0-14.114,11.486-25.6,25.6-25.6
		s25.6,11.486,25.6,25.6v17.067C93.867,388.718,90.044,392.532,85.333,392.532z M59.733,375.466H76.8v-8.533
		c0-4.71-3.831-8.533-8.533-8.533s-8.533,3.823-8.533,8.533L59.733,375.466L59.733,375.466z"/>
</g>
<g>
</g>
<g>
</g>
<g>
</g>
<g>
</g>
<g>
</g>
<g>
</g>
<g>
</g>
<g>
</g>
<g>
</g>
<g>
</g>
<g>
</g>
<g>
</g>
<g>
</g>
<g>
</g>
<g>
</g>
</svg>
