<?xml version="1.0" encoding="iso-8859-1"?>
<!-- Generator: Adobe Illustrator 19.0.0, SVG Export Plug-In . SVG Version: 6.00 Build 0)  -->
<svg version="1.1" id="Capa_1" xmlns="http://www.w3.org/2000/svg" xmlns:xlink="http://www.w3.org/1999/xlink" x="0px" y="0px"
	 viewBox="0 0 512 512" style="enable-background:new 0 0 512 512;" xml:space="preserve">
<rect x="110.933" y="76.8" style="fill:#35495E;" width="290.133" height="358.4"/>
<path style="fill:#FFFFFF;" d="M256,247.467c33.579,0,62.541,11.665,76.442,28.595c10.914-15.317,17.425-33.963,17.425-54.195
	C349.867,170.027,307.84,128,256,128s-93.867,42.027-93.867,93.867c0,20.233,6.511,38.878,17.425,54.195
	C193.459,259.132,222.421,247.467,256,247.467z"/>
<path style="fill:#ECF0F1;" d="M373.197,503.467H138.803c-15.394,0-27.87-12.476-27.87-27.87V435.2h290.133v40.397
	C401.067,490.991,388.591,503.467,373.197,503.467z"/>
<g>
	<path style="fill:#BDC3C7;" d="M281.6,477.867h-51.2c-4.71,0-8.533-3.814-8.533-8.533c0-4.719,3.823-8.533,8.533-8.533h51.2
		c4.71,0,8.533,3.814,8.533,8.533C290.133,474.052,286.31,477.867,281.6,477.867z"/>
	<path style="fill:#BDC3C7;" d="M358.4,477.867h-34.133c-4.71,0-8.533-3.814-8.533-8.533c0-4.719,3.823-8.533,8.533-8.533H358.4
		c4.71,0,8.533,3.814,8.533,8.533C366.933,474.052,363.11,477.867,358.4,477.867z"/>
	<path style="fill:#BDC3C7;" d="M187.733,477.867H153.6c-4.71,0-8.533-3.814-8.533-8.533c0-4.719,3.823-8.533,8.533-8.533h34.133
		c4.71,0,8.533,3.814,8.533,8.533C196.267,474.052,192.444,477.867,187.733,477.867z"/>
</g>
<path style="fill:#ECF0F1;" d="M138.803,8.533h234.402c15.386,0,27.861,12.476,27.861,27.87V76.8H110.933V36.403
	C110.933,21.009,123.409,8.533,138.803,8.533z"/>
<path style="fill:#BDC3C7;" d="M298.667,51.2h-85.333c-4.71,0-8.533-3.814-8.533-8.533s3.823-8.533,8.533-8.533h85.333
	c4.71,0,8.533,3.814,8.533,8.533S303.377,51.2,298.667,51.2z"/>
<g>
	<path style="fill:#F29C1F;" d="M443.682,324.454c-0.794,0-1.596-0.111-2.398-0.341c-4.523-1.323-7.117-6.059-5.803-10.581
		c5.436-18.611,8.192-37.956,8.192-57.532c0-19.499-2.739-38.801-8.132-57.353c-1.314-4.523,1.289-9.259,5.811-10.573
		c4.523-1.323,9.259,1.271,10.581,5.811c5.845,20.096,8.815,41.003,8.815,62.114c0,21.188-2.987,42.155-8.875,62.319
		C450.782,322.039,447.377,324.454,443.682,324.454z"/>
	<path style="fill:#F29C1F;" d="M68.318,324.454c-3.695,0-7.1-2.415-8.183-6.144c-5.888-20.156-8.875-41.122-8.875-62.319
		c0-21.12,2.97-42.018,8.815-62.114c1.314-4.531,6.05-7.134,10.581-5.811c4.523,1.314,7.125,6.05,5.811,10.573
		c-5.402,18.56-8.141,37.862-8.141,57.361c0,19.575,2.756,38.929,8.192,57.532c1.323,4.523-1.271,9.259-5.803,10.581
		C69.914,324.352,69.111,324.454,68.318,324.454z"/>
	<path style="fill:#F29C1F;" d="M25.6,358.4c-3.26,0-6.374-1.886-7.799-5.052C6.323,327.646,0,293.086,0,256
		s6.323-71.646,17.809-97.348c1.929-4.292,6.972-6.229,11.273-4.309c4.301,1.929,6.229,6.972,4.309,11.273
		C22.861,189.167,17.067,221.269,17.067,256s5.794,66.833,16.324,90.385c1.92,4.301-0.009,9.353-4.309,11.273
		C27.947,358.17,26.769,358.4,25.6,358.4z"/>
	<path style="fill:#F29C1F;" d="M486.4,358.4c-1.161,0-2.347-0.23-3.473-0.742c-4.301-1.929-6.229-6.972-4.309-11.273
		c10.522-23.552,16.316-55.654,16.316-90.385s-5.794-66.833-16.324-90.385c-1.92-4.301,0.009-9.353,4.309-11.273
		c4.301-1.929,9.344,0.017,11.273,4.309C505.677,184.354,512,218.914,512,256s-6.323,71.646-17.809,97.348
		C492.774,356.514,489.66,358.4,486.4,358.4z"/>
</g>
<g>
	<circle style="fill:#4482C3;" cx="256" cy="187.733" r="25.6"/>
	<path style="fill:#4482C3;" d="M256,247.467c-33.621,0-62.618,11.699-76.51,28.655c17.007,23.945,44.902,39.612,76.51,39.612
		c31.608,0,59.503-15.667,76.51-39.612C318.618,259.166,289.621,247.467,256,247.467z"/>
</g>
<rect x="145.067" y="358.4" style="fill:#F0C419;" width="51.2" height="34.133"/>
<rect x="315.733" y="358.4" style="fill:#F29C1F;" width="51.2" height="34.133"/>
<rect x="230.4" y="358.4" style="fill:#E64C3C;" width="51.2" height="34.133"/>
<g>
	<path style="fill:#611C90;" d="M373.197,512H138.803c-20.07,0-36.403-16.324-36.403-36.403V435.2c0-4.719,3.823-8.533,8.533-8.533
		h290.133c4.719,0,8.533,3.814,8.533,8.533v40.397C409.6,495.676,393.276,512,373.197,512z M119.467,443.733v31.863
		c0,10.658,8.678,19.337,19.337,19.337h234.394c10.658,0,19.337-8.678,19.337-19.337v-31.863H119.467z"/>
	<path style="fill:#611C90;" d="M281.6,477.867h-51.2c-4.71,0-8.533-3.814-8.533-8.533c0-4.719,3.823-8.533,8.533-8.533h51.2
		c4.719,0,8.533,3.814,8.533,8.533C290.133,474.052,286.319,477.867,281.6,477.867z"/>
	<path style="fill:#611C90;" d="M358.4,477.867h-34.133c-4.719,0-8.533-3.814-8.533-8.533c0-4.719,3.814-8.533,8.533-8.533H358.4
		c4.719,0,8.533,3.814,8.533,8.533C366.933,474.052,363.119,477.867,358.4,477.867z"/>
	<path style="fill:#611C90;" d="M187.733,477.867H153.6c-4.71,0-8.533-3.814-8.533-8.533c0-4.719,3.823-8.533,8.533-8.533h34.133
		c4.71,0,8.533,3.814,8.533,8.533C196.267,474.052,192.444,477.867,187.733,477.867z"/>
	<path style="fill:#611C90;" d="M401.067,85.333H110.933c-4.71,0-8.533-3.823-8.533-8.533V36.403C102.4,16.333,118.733,0,138.803,0
		h234.402c20.07,0,36.395,16.333,36.395,36.403V76.8C409.6,81.51,405.786,85.333,401.067,85.333z M119.467,68.267h273.067V36.403
		c0-10.658-8.67-19.337-19.328-19.337H138.803c-10.658,0-19.337,8.678-19.337,19.337V68.267z"/>
	<path style="fill:#611C90;" d="M298.667,51.2h-85.333c-4.71,0-8.533-3.823-8.533-8.533s3.823-8.533,8.533-8.533h85.333
		c4.719,0,8.533,3.823,8.533,8.533S303.386,51.2,298.667,51.2z"/>
	<path style="fill:#611C90;" d="M401.067,443.733H110.933c-4.71,0-8.533-3.814-8.533-8.533V76.8c0-4.71,3.823-8.533,8.533-8.533
		h290.133c4.719,0,8.533,3.823,8.533,8.533v358.4C409.6,439.919,405.786,443.733,401.067,443.733z M119.467,426.667h273.067V85.333
		H119.467V426.667z"/>
	<path style="fill:#611C90;" d="M443.674,324.454c-0.794,0-1.596-0.111-2.389-0.341c-4.523-1.314-7.117-6.059-5.803-10.581
		c5.436-18.628,8.192-37.982,8.192-57.532c0-19.507-2.731-38.801-8.132-57.353c-1.314-4.523,1.28-9.259,5.811-10.573
		c4.514-1.34,9.259,1.289,10.573,5.811c5.854,20.096,8.815,40.994,8.815,62.114c0,21.171-2.987,42.138-8.875,62.319
		C450.782,322.039,447.377,324.454,443.674,324.454z"/>
	<path style="fill:#611C90;" d="M68.318,324.454c-3.695,0-7.1-2.415-8.183-6.144c-5.888-20.164-8.875-41.131-8.875-62.319
		c0-21.111,2.97-42.001,8.815-62.114c1.314-4.523,6.05-7.108,10.581-5.811c4.523,1.314,7.125,6.05,5.811,10.581
		c-5.402,18.569-8.141,37.862-8.141,57.353c0,19.567,2.756,38.929,8.192,57.532c1.323,4.523-1.271,9.259-5.803,10.581
		C69.922,324.352,69.111,324.454,68.318,324.454z"/>
	<path style="fill:#611C90;" d="M25.6,358.4c-3.26,0-6.383-1.886-7.799-5.052C6.323,327.637,0,293.069,0,256
		s6.323-71.637,17.809-97.348c1.911-4.301,6.955-6.246,11.273-4.309c4.301,1.92,6.229,6.972,4.309,11.273
		C22.861,189.184,17.067,221.278,17.067,256c0,34.714,5.794,66.816,16.324,90.385c1.92,4.309-0.009,9.353-4.309,11.273
		C27.947,358.17,26.769,358.4,25.6,358.4z"/>
	<path style="fill:#611C90;" d="M486.392,358.4c-1.161,0-2.338-0.23-3.465-0.742c-4.309-1.929-6.238-6.963-4.318-11.264
		c10.522-23.586,16.324-55.689,16.324-90.394s-5.803-66.807-16.324-90.385c-1.929-4.301,0.009-9.353,4.318-11.273
		c4.292-1.929,9.353,0.009,11.264,4.309C505.677,184.371,512,218.948,512,256c0,37.06-6.323,71.629-17.809,97.34
		C492.774,356.514,489.66,358.4,486.392,358.4z"/>
	<path style="fill:#611C90;" d="M256,324.267c-56.465,0-102.4-45.935-102.4-102.4s45.935-102.4,102.4-102.4
		s102.4,45.935,102.4,102.4S312.465,324.267,256,324.267z M256,136.533c-47.053,0-85.333,38.281-85.333,85.333
		S208.947,307.2,256,307.2s85.333-38.281,85.333-85.333S303.053,136.533,256,136.533z"/>
	<path style="fill:#611C90;" d="M256,221.867c-18.825,0-34.133-15.309-34.133-34.133S237.175,153.6,256,153.6
		c18.825,0,34.133,15.309,34.133,34.133S274.825,221.867,256,221.867z M256,170.667c-9.412,0-17.067,7.654-17.067,17.067
		c0,9.412,7.654,17.067,17.067,17.067c9.412,0,17.067-7.654,17.067-17.067C273.067,178.321,265.412,170.667,256,170.667z"/>
	<path style="fill:#611C90;" d="M256,324.267c-33.05,0-64.256-16.154-83.465-43.204c-2.227-3.132-2.082-7.373,0.358-10.351
		c16.06-19.601,47.906-31.778,83.106-31.778s67.046,12.177,83.106,31.787c2.441,2.978,2.586,7.219,0.358,10.351
		C320.247,308.113,289.05,324.267,256,324.267z M190.72,276.702C206.865,295.919,230.793,307.2,256,307.2
		c25.199,0,49.126-11.281,65.28-30.498C307.243,263.97,282.539,256,256,256C229.453,256,204.757,263.97,190.72,276.702z"/>
	<path style="fill:#611C90;" d="M196.267,401.067h-51.2c-4.71,0-8.533-3.814-8.533-8.533V358.4c0-4.719,3.823-8.533,8.533-8.533
		h51.2c4.71,0,8.533,3.814,8.533,8.533v34.133C204.8,397.252,200.977,401.067,196.267,401.067z M153.6,384h34.133v-17.067H153.6V384
		z"/>
	<path style="fill:#611C90;" d="M366.933,401.067h-51.2c-4.719,0-8.533-3.814-8.533-8.533V358.4c0-4.719,3.814-8.533,8.533-8.533
		h51.2c4.719,0,8.533,3.814,8.533,8.533v34.133C375.467,397.252,371.652,401.067,366.933,401.067z M324.267,384H358.4v-17.067
		h-34.133V384z"/>
	<path style="fill:#611C90;" d="M281.6,401.067h-51.2c-4.71,0-8.533-3.814-8.533-8.533V358.4c0-4.719,3.823-8.533,8.533-8.533h51.2
		c4.719,0,8.533,3.814,8.533,8.533v34.133C290.133,397.252,286.319,401.067,281.6,401.067z M238.933,384h34.133v-17.067h-34.133V384
		z"/>
</g>
<g>
</g>
<g>
</g>
<g>
</g>
<g>
</g>
<g>
</g>
<g>
</g>
<g>
</g>
<g>
</g>
<g>
</g>
<g>
</g>
<g>
</g>
<g>
</g>
<g>
</g>
<g>
</g>
<g>
</g>
</svg>
